<svg xmlns="http://www.w3.org/2000/svg" xmlns:xlink="http://www.w3.org/1999/xlink" aria-hidden="true" role="img" class="iconify iconify--logos" width="31.88" height="32" preserveAspectRatio="xMidYMid meet" viewBox="0 0 256 256"><linearGradient id="IconifyId1813088fe1fbc01fb466" x1="-.828" x2="1.285" y1="-.141" y2="1.185"><stop offset="0%" stop-color="#F80"></stop><stop offset="100%" stop-color="#FF0900"></stop></linearGradient><path fill="url(#IconifyId1813088fe1fbc01fb466)" d="M255.153 37.948L157.88 248.58c-2.484 5.358-8.815 7.676-14.192 5.177a10.678 10.678 0 0 1-5.198-5.157L88.777 37.949c-2.493-5.355-.18-11.71 5.174-14.203a10.678 10.678 0 0 1 4.525-.997h146.052c5.899 0 10.681 4.782 10.681 10.681c0 1.554-.337 3.09-.986 4.518Z"></path><path fill="#FF5E00" d="M141.444 212.137l28.207-125.67c1.311-5.748 7.03-9.344 12.778-8.033a10.678 10.678 0 0 1 7.743 7.12l64.225 176.347c2.023 5.543-.83 11.675-6.373 13.698a10.678 10.678 0 0 1-4.337.385l-94.236-14.588c-5.826-.9-9.817-6.347-8.918-12.173c.197-1.278.628-2.512 1.27-3.635Z"></path></svg>
